<svg viewBox="0 0 6 10">
  <path d="m2.61,9.71c-0.16,-0.13 -0.31,-0.26 -0.47,-0.38 -0.31,-0.27 -0.09,-0.79 -0.24,-1.15 -0.09,-0.4 -0.33,-0.58 -0.74,-0.56 -0.2,0 -0.36,-0.04 -0.5,-0.17 -0.05,-0.04 -0.07,-0.11 -0.1,-0.17 -0.11,-0.23 -0.21,-0.46 -0.33,-0.68 -0.22,-0.51 0.27,-1.02 -0.04,-1.57 -0.41,-0.93 -0.05,-1.97 0.08,-2.93C0.93,-0.34 4.87,-0.66 6.35,1.18c0.81,1.01 1.07,2.33 0.66,3.55 -0.15,0.4 -0.19,0.8 0.04,1.18 0.08,0.14 0.05,0.27 -0.02,0.41 -0.11,0.24 -0.2,0.5 -0.18,0.78 -0.03,0.39 -0.64,0.55 -0.96,0.35 -0.2,-0.13 -0.52,0.07 -0.56,0.33 -0.04,0.27 -0.08,0.54 -0.06,0.81 0.01,0.22 -0.06,0.36 -0.2,0.5 -0.23,0.15 -0.43,0.78 -0.7,0.51 -0.06,-0.04 -0.19,-0.04 -0.25,0 -0.3,0.19 -0.61,0.13 -0.92,0.05 -0.19,-0.05 -0.36,-0.06 -0.59,0.06ZM5.4,6.33c0.68,0 0.89,-0.53 0.85,-1.08 -0.04,-0.52 -0.66,-0.44 -1.02,-0.35 -0.23,0.05 -0.45,0.13 -0.67,0.21 -0.77,0.35 0.34,1.29 0.85,1.22ZM1.46,5.01s0,0.02 0,0.02c-0.34,-0.01 -0.56,0.13 -0.45,0.5 0.03,0.3 0.02,0.7 0.39,0.79 0.46,0.13 0.96,0.27 1.3,-0.2 0.13,-0.17 0.29,-0.52 0.11,-0.67 -0.35,-0.39 -0.88,-0.35 -1.35,-0.44ZM3.66,7.22s0.02,0 0.03,0c-0.01,0.35 0.51,0.54 0.57,0.14 -0.04,-0.35 -0.23,-0.7 -0.35,-1.03 -0.08,-0.17 -0.37,-0.3 -0.5,-0.11 -0.07,0.13 -0.15,0.26 -0.2,0.41 -0.03,0.29 -0.35,0.83 0.08,0.95 0.24,0.09 0.33,-0.15 0.37,-0.36Z"
  style="fill:pink;stroke-width:0" />
</svg>