<svg viewBox="0 0 57 34">
  <path d="M19.605,12.107C19.281,11.269 19.052,10.404 18.899,9.518C18.775,8.805 18.705,8.088 18.673,7.365C18.646,6.781 18.646,6.196 18.68,5.612C18.775,4.042 19.079,2.516 19.651,1.048C19.718,0.876 19.801,0.711 19.872,0.541C19.913,0.441 19.949,0.337 19.984,0.235C20.011,0.156 20,0.076 19.98,0H0.019C0.001,0.076 -0.012,0.156 0.016,0.235C0.052,0.337 0.087,0.442 0.129,0.541C0.201,0.711 0.283,0.876 0.35,1.048C0.922,2.516 1.224,4.041 1.32,5.612C1.355,6.196 1.354,6.78 1.328,7.365C1.296,8.087 1.225,8.805 1.102,9.518C0.949,10.404 0.719,11.269 0.395,12.107C0.304,12.343 0.203,12.574 0.106,12.807C0.048,12.944 0.011,13.085 0.021,13.235C0.028,13.326 0.031,13.417 0.047,13.505C0.089,13.745 0.134,13.984 0.185,14.222C0.493,15.651 1.076,16.957 1.942,18.13C2.812,19.307 3.844,20.326 5,21.215C6.06,22.031 7.212,22.697 8.417,23.271C8.865,23.485 9.316,23.695 9.767,23.905C9.842,23.941 9.921,23.971 9.999,24C10.078,23.971 10.156,23.941 10.233,23.905C10.684,23.696 11.134,23.485 11.583,23.271C12.788,22.697 13.939,22.032 14.999,21.215C16.157,20.326 17.188,19.307 18.057,18.13C18.924,16.957 19.506,15.651 19.814,14.222C19.866,13.984 19.91,13.745 19.953,13.505C19.969,13.417 19.971,13.325 19.978,13.235C19.989,13.085 19.951,12.945 19.894,12.807C19.797,12.574 19.695,12.342 19.604,12.107H19.605ZM13.511,15.143C13.718,17.016 12.377,18.907 10.273,19.169C8.16,19.345 6.464,17.768 6.287,15.892C6.21,15.063 6.411,14.273 6.812,13.613L5.025,9.003L7.078,9.378L5.908,6.252L7.371,6.374L6.027,2.416L9.648,7.635L8.208,7.449C8.208,7.449 9.289,10.119 9.548,10.713C9.099,10.683 8.149,10.601 8.149,10.601L8.745,12.051C8.996,11.965 9.26,11.904 9.535,11.875C10.151,11.81 10.743,11.903 11.273,12.121L11.875,10.531C11.875,10.531 10.926,10.632 10.478,10.671C10.729,10.072 11.773,7.38 11.773,7.38L10.336,7.596L13.886,2.304L12.596,6.289L14.057,6.137L12.929,9.286L14.976,8.869L13.128,13.852C13.325,14.244 13.46,14.678 13.512,15.144L13.511,15.143Z"
  style="fill:pink;stroke-width:0" />
</svg>