<svg viewBox="0 0 42 25">
    <path d="M18.569,6.681L20.267,0L16.962,0.868C16.67,0.95 16.067,1.11 14.855,1.4C12.769,1.901 13.793,1.182 12.449,1.183C11.191,1.145 10.305,1.714 9.405,2.247C9.295,2.313 9.177,2.364 9.058,2.41C8.826,2.497 8.584,2.559 8.342,2.61C8.087,2.663 7.831,2.704 7.573,2.737C7.346,2.766 7.119,2.788 6.89,2.806C6.777,2.815 6.661,2.832 6.548,2.829C6.448,2.826 6.339,2.815 6.253,2.759C6.153,2.695 6.038,2.636 5.919,2.628C5.79,2.62 5.663,2.651 5.537,2.665C4.839,2.739 4.144,2.833 3.451,2.95C3.137,3.004 2.824,3.062 2.511,3.124L2.426,2.604C2.887,2.31 3.157,1.842 3.07,1.377C2.948,0.717 2.165,0.316 1.321,0.482C0.477,0.645 -0.107,1.314 0.016,1.974C0.103,2.439 0.52,2.77 1.052,2.87L4.339,22.999L5.717,22.762L4.647,16.211C6.593,15.629 7.41,14.924 7.696,15.283C8.027,15.699 8.372,15.685 8.372,15.685C8.372,15.685 8.859,15.79 9.982,15.505C11.106,15.221 12.92,13.906 14.154,13.536C15.388,13.166 15.828,13.126 15.989,13.625C16.149,14.124 16.343,14.358 17.337,14.097C18.13,13.89 19.372,13.366 19.842,13.161L22.999,11.832L18.568,6.679L18.569,6.681ZM4.788,13.574L3.505,5.715L5.71,5.169L6.993,13.028L4.788,13.574Z"
          style="fill:pink;stroke-width:0" />
</svg>