<svg viewBox="0 0 50 30">
    <path d="
    M11.253,7.557L13.602,5.027C13.602,5.027 12.622,4.092 14.03,2.657C14.03,2.657 12.406,0.321 9.904,0.586C8.252,0.761 7.569,0.607 5.773,1.757C4.421,2.624 1.641,2.769 1.136,0.987C0.631,-0.796 -0.738,1.616 0.712,3.265C1.854,4.565 4.135,4.91 5.592,4.159C7.76,3.043 8.913,2.819 9.963,3.072C11.012,3.326 10.481,4.61 10.481,4.61C10.481,4.61 9.948,6.269 11.252,7.558L11.253,7.557Z 
    M14.133,10.017L16.502,7.505C16.502,7.505 17.509,8.327 18.848,6.827C18.848,6.827 21.28,8.299 21.178,10.818C21.11,12.481 21.308,13.154 20.277,15.023C19.501,16.431 19.535,19.219 21.343,19.609C23.151,19.998 20.837,21.522 19.101,20.18C17.731,19.121 17.242,16.864 17.896,15.358C18.869,13.12 19.017,11.951 18.697,10.918C18.377,9.886 17.132,10.5 17.132,10.5C17.132,10.5 15.502,11.236 14.133,10.016V10.017Z
    M4.165,17.824L1.016,18.194L4.624,14.435L6.132,14.593L16.283,3.615L15.286,3.238L20.762,0L17.919,5.698L17.475,4.728L7.25,15.637L7.513,17.133L4.02,21L4.165,17.824Z"
          style="fill:pink;stroke-width:0" />
</svg>