<svg viewBox="0 0 50 30">
    <path d="M21.91,15.03L28,13.998L21.91,12.966C21.798,12.1 21.547,11.278 21.179,10.522L23.844,8.314L20.608,9.517C20.04,8.68 19.318,7.958 18.482,7.39L19.684,4.152L17.478,6.818C16.721,6.451 15.899,6.199 15.033,6.087L13.998,0L12.966,6.089C12.1,6.201 11.279,6.453 10.523,6.82L8.314,4.153L9.517,7.391C8.681,7.958 7.959,8.682 7.392,9.517L4.154,8.314L6.819,10.521C6.452,11.277 6.2,12.099 6.089,12.965L0,13.998L6.09,15.029C6.202,15.897 6.453,16.718 6.822,17.476L4.158,19.682L7.394,18.481C7.962,19.317 8.684,20.039 9.521,20.608L8.318,23.845L10.525,21.18C11.281,21.547 12.102,21.799 12.97,21.911L14.002,28L15.033,21.911C15.9,21.799 16.722,21.547 17.479,21.18L19.686,23.846L18.484,20.608C19.319,20.041 20.041,19.319 20.61,18.482L23.847,19.683L21.182,17.476C21.549,16.719 21.801,15.898 21.913,15.031L21.91,15.03ZM13.999,18.591C11.463,18.591 9.408,16.535 9.408,13.999C9.408,11.464 11.464,9.408 13.999,9.408C16.535,9.408 18.591,11.464 18.591,13.999C18.591,16.535 16.535,18.591 13.999,18.591Z"
          style="fill:pink;stroke-width:0" />
</svg>